# xmcd CD database file
#
# Track frame offsets:
#	150
#	5526
#	8277
#	10966
#	13336
#	22719
#	23153
#	23550
#	28588
#	39482
#	43054
#	48855
#	57396
#	62862
#	65548
#	71803
#	76766
#	81993
#	85147
#	97678
#	102088
#	106794
#	113889
#	116562
#	118349
#	120363
#	129858
#	145397
#	155983
#	171679
#	177185
#	188254
#	188868
#	190390
#	191530
#	194976
#	197633
#	199060
#	200901
#	208274
#	215642
#	222032
#	225247
#	238512
#	257589
#	267185
#	275395
#	288513
#	289678
#	292714
#	326071
#
# Disc length: 4458 seconds
#
# Revision: 2
# Processed by: cddbd v1.5.1PL0 Copyright (c) Steve Scherf et al.
# Submitted via: CDex 1.51
#
DISCID=dd116833
DTITLE=栗コーダーカルテット - 公式BOOTLEG
DYEAR=1900
DGENRE=Instrumental
TTITLE0=インプロヴィゼイション R-2
TTITLE1=ヘンデルのホーンパイプ
TTITLE2=Jam the HOUSNAILから”トリオのテーマ” (alternate version)
TTITLE3=花王ソフィーナ「薬用ホワイトニング」
TTITLE4=組曲「キージェ中尉」よりキージェの結婚
TTITLE5=栗コーダーカルテットの栗,またはバンド名の由来
TTITLE6=Jam the HOUSNAIL "TITLE"
TTITLE7=ゴルゲッジとソルフェッジ
TTITLE8=THE CANNON SONG
TTITLE9=インプロヴィゼイション R-3
TTITLE10=NELLIE THE ELEPHANT
TTITLE11=インプロヴィゼイション R-4
TTITLE12=インプロヴィゼイション S-2
TTITLE13=KIRIN”一番搾り”「初もの そら豆と一番搾り篇」
TTITLE14=ガラスの林檎
TTITLE15=マイリンダ
TTITLE16=インプロヴィゼイション S-1
TTITLE17=移民の歌
TTITLE18=バリハイ
TTITLE19=ジョージ・ホワイトヘッド氏のアルマンド
TTITLE20=インプロヴィゼイション R-6
TTITLE21=わが母の教え給いし歌
TTITLE22=インプロヴィゼイション R-1
TTITLE23=煮物上手のうた
TTITLE24=インプロヴィゼイション S-3
TTITLE25=木星
TTITLE26=インプロヴィゼイション L-3
TTITLE27=A SUNNY DAY
TTITLE28=Annabelle Cocollos
TTITLE29=浪速CM新社のテーマ
TTITLE30=Baby, You're My Destiny
TTITLE31=資生堂薬用不老林II
TTITLE32=イシイのミートボール
TTITLE33=イシイのハンバーグ(ロンドとサルタレッロ)
TTITLE34=ヘンデルのリコーダーソナタAmからAllegro
TTITLE35=J-50間奏
TTITLE36=ミツカン味ぽん「かつおと野菜ののっけ盛り」
TTITLE37=インプロヴィゼイション R-7
TTITLE38=くつやのマルチンへ続くインプロヴィゼイション
TTITLE39=Coracao Vagabundo
TTITLE40=COME AGAIN
TTITLE41=スペイン組曲から”ルヘーロとパラデタス」
TTITLE42=アリラン
TTITLE43=DER GASN NIGUN
TTITLE44=川口くんのおすすめトラッド その1
TTITLE45=川口くんのおすすめトラッド その2
TTITLE46=ラッパ吹きの休日
TTITLE47=東京タワーの歌の前説
TTITLE48=東京タワーの歌
TTITLE49=インプロヴィゼイション L-4
TTITLE50=インスブルックよさようなら
EXTD=
EXTT0=
EXTT1=
EXTT2=
EXTT3=
EXTT4=
EXTT5=
EXTT6=
EXTT7=
EXTT8=
EXTT9=
EXTT10=
EXTT11=
EXTT12=
EXTT13=
EXTT14=
EXTT15=
EXTT16=
EXTT17=
EXTT18=
EXTT19=
EXTT20=
EXTT21=
EXTT22=
EXTT23=
EXTT24=
EXTT25=
EXTT26=
EXTT27=
EXTT28=
EXTT29=
EXTT30=
EXTT31=
EXTT32=
EXTT33=
EXTT34=
EXTT35=
EXTT36=
EXTT37=
EXTT38=
EXTT39=
EXTT40=
EXTT41=
EXTT42=
EXTT43=
EXTT44=
EXTT45=
EXTT46=
EXTT47=
EXTT48=
EXTT49=
EXTT50=
PLAYORDER=
